<?xml version="1.0" encoding="UTF-8" standalone="no"?>
<!DOCTYPE svg PUBLIC "-//W3C//DTD SVG 1.1//EN"
 "http://www.w3.org/Graphics/SVG/1.1/DTD/svg11.dtd">
<!-- Generated by graphviz version 2.44.0 (20200408.0750)
 -->
<!-- Title: workflow Pages: 1 -->
<svg width="377pt" height="174pt"
 viewBox="0.00 0.00 377.00 174.00" xmlns="http://www.w3.org/2000/svg" xmlns:xlink="http://www.w3.org/1999/xlink">
<g id="graph0" class="graph" transform="scale(1 1) rotate(0) translate(4 170)">
<title>workflow</title>
<polygon fill="white" stroke="transparent" points="-4,4 -4,-170 373,-170 373,4 -4,4"/>
<!-- place_0e7766b460fd2a39a2fd81d4a3a636b033b52be4 -->
<g id="node1" class="node">
<title>place_0e7766b460fd2a39a2fd81d4a3a636b033b52be4</title>
<ellipse fill="lightblue" stroke="#333333" cx="36" cy="-50" rx="36" ry="36"/>
<text text-anchor="middle" x="36" y="-47.8" font-family="Arial" font-size="9.00">draft</text>
</g>
<!-- place_b56f08775db75495b47fcebe192b46a1ddbf6416 -->
<g id="node2" class="node">
<title>place_b56f08775db75495b47fcebe192b46a1ddbf6416</title>
<ellipse fill="none" stroke="#333333" cx="184" cy="-99" rx="36" ry="36"/>
<text text-anchor="middle" x="184" y="-96.8" font-family="Arial" font-size="9.00">reviewed</text>
</g>
<!-- place_0e7766b460fd2a39a2fd81d4a3a636b033b52be4&#45;&gt;place_b56f08775db75495b47fcebe192b46a1ddbf6416 -->
<g id="edge1" class="edge">
<title>place_0e7766b460fd2a39a2fd81d4a3a636b033b52be4&#45;&gt;place_b56f08775db75495b47fcebe192b46a1ddbf6416</title>
<path fill="none" stroke="#333333" d="M70.5,-61.24C92.66,-68.68 121.78,-78.45 144.84,-86.19"/>
<polygon fill="#333333" stroke="#333333" points="144.36,-87.88 149.66,-87.81 145.48,-84.56 144.36,-87.88"/>
<text text-anchor="middle" x="110" y="-82.8" font-family="Arial" font-size="9.00">to_review</text>
</g>
<!-- place_1f087a5954f6249bb7245576c304a0520d4178c5 -->
<g id="node3" class="node">
<title>place_1f087a5954f6249bb7245576c304a0520d4178c5</title>
<ellipse fill="none" stroke="#333333" cx="333" cy="-36" rx="36" ry="36"/>
<text text-anchor="middle" x="333" y="-33.8" font-family="Arial" font-size="9.00">rejected</text>
</g>
<!-- place_b56f08775db75495b47fcebe192b46a1ddbf6416&#45;&gt;place_1f087a5954f6249bb7245576c304a0520d4178c5 -->
<g id="edge3" class="edge">
<title>place_b56f08775db75495b47fcebe192b46a1ddbf6416&#45;&gt;place_1f087a5954f6249bb7245576c304a0520d4178c5</title>
<path fill="none" stroke="#333333" d="M217.26,-85.17C240.16,-75.36 270.95,-62.16 294.87,-51.91"/>
<polygon fill="#333333" stroke="#333333" points="295.66,-53.48 299.56,-49.9 294.28,-50.26 295.66,-53.48"/>
<text text-anchor="middle" x="258.5" y="-76.8" font-family="Arial" font-size="9.00">reject</text>
</g>
<!-- place_c2807535f28e44fe6c7375dcf90518115529a8fa -->
<g id="node4" class="node">
<title>place_c2807535f28e44fe6c7375dcf90518115529a8fa</title>
<ellipse fill="none" stroke="#333333" cx="333" cy="-130" rx="36" ry="36"/>
<text text-anchor="middle" x="333" y="-127.8" font-family="Arial" font-size="9.00">published</text>
</g>
<!-- place_b56f08775db75495b47fcebe192b46a1ddbf6416&#45;&gt;place_c2807535f28e44fe6c7375dcf90518115529a8fa -->
<g id="edge2" class="edge">
<title>place_b56f08775db75495b47fcebe192b46a1ddbf6416&#45;&gt;place_c2807535f28e44fe6c7375dcf90518115529a8fa</title>
<path fill="none" stroke="#333333" d="M219.93,-95.83C237.87,-95.18 259.92,-95.9 279,-101 285.38,-102.7 291.83,-105.32 297.92,-108.3"/>
<polygon fill="#333333" stroke="#333333" points="297.26,-109.93 302.51,-110.65 298.85,-106.81 297.26,-109.93"/>
<text text-anchor="middle" x="258.5" y="-103.8" font-family="Arial" font-size="9.00">publish</text>
</g>
<!-- place_1f087a5954f6249bb7245576c304a0520d4178c5&#45;&gt;place_0e7766b460fd2a39a2fd81d4a3a636b033b52be4 -->
<g id="edge5" class="edge">
<title>place_1f087a5954f6249bb7245576c304a0520d4178c5&#45;&gt;place_0e7766b460fd2a39a2fd81d4a3a636b033b52be4</title>
<path fill="none" stroke="#333333" d="M296.72,-37.42C259.68,-38.94 199.74,-41.48 148,-44 124.54,-45.14 98.31,-46.56 77.23,-47.72"/>
<polygon fill="#333333" stroke="#333333" points="76.89,-45.99 71.99,-48.01 77.08,-49.48 76.89,-45.99"/>
<text text-anchor="middle" x="184" y="-46.8" font-family="Arial" font-size="9.00">to_draft</text>
</g>
<!-- place_c2807535f28e44fe6c7375dcf90518115529a8fa&#45;&gt;place_b56f08775db75495b47fcebe192b46a1ddbf6416 -->
<g id="edge4" class="edge">
<title>place_c2807535f28e44fe6c7375dcf90518115529a8fa&#45;&gt;place_b56f08775db75495b47fcebe192b46a1ddbf6416</title>
<path fill="none" stroke="#333333" d="M297.58,-123.24C279.78,-119.7 257.7,-115.22 238,-111 233.53,-110.04 228.85,-109.02 224.2,-107.98"/>
<polygon fill="#333333" stroke="#333333" points="224.45,-106.25 219.19,-106.86 223.68,-109.66 224.45,-106.25"/>
<text text-anchor="middle" x="258.5" y="-121.8" font-family="Arial" font-size="9.00">unpublish</text>
</g>
</g>
</svg>
