<?xml version="1.0" encoding="UTF-8" standalone="no"?>
<!DOCTYPE svg PUBLIC "-//W3C//DTD SVG 1.1//EN"
 "http://www.w3.org/Graphics/SVG/1.1/DTD/svg11.dtd">
<!-- Generated by graphviz version 2.44.0 (20200408.0750)
 -->
<!-- Title: workflow Pages: 1 -->
<svg width="367pt" height="170pt"
 viewBox="0.00 0.00 367.00 170.00" xmlns="http://www.w3.org/2000/svg" xmlns:xlink="http://www.w3.org/1999/xlink">
<g id="graph0" class="graph" transform="scale(1 1) rotate(0) translate(4 166)">
<title>workflow</title>
<polygon fill="white" stroke="transparent" points="-4,4 -4,-166 363,-166 363,4 -4,4"/>
<!-- place_0e7766b460fd2a39a2fd81d4a3a636b033b52be4 -->
<g id="node1" class="node">
<title>place_0e7766b460fd2a39a2fd81d4a3a636b033b52be4</title>
<ellipse fill="lightblue" stroke="#333333" cx="36" cy="-52" rx="36" ry="36"/>
<text text-anchor="middle" x="36" y="-49.8" font-family="Arial" font-size="9.00">draft</text>
</g>
<!-- place_b56f08775db75495b47fcebe192b46a1ddbf6416 -->
<g id="node2" class="node">
<title>place_b56f08775db75495b47fcebe192b46a1ddbf6416</title>
<ellipse fill="none" stroke="#333333" cx="184" cy="-100" rx="36" ry="36"/>
<text text-anchor="middle" x="184" y="-97.8" font-family="Arial" font-size="9.00">reviewed</text>
</g>
<!-- place_0e7766b460fd2a39a2fd81d4a3a636b033b52be4&#45;&gt;place_b56f08775db75495b47fcebe192b46a1ddbf6416 -->
<g id="edge1" class="edge">
<title>place_0e7766b460fd2a39a2fd81d4a3a636b033b52be4&#45;&gt;place_b56f08775db75495b47fcebe192b46a1ddbf6416</title>
<path fill="none" stroke="#333333" d="M70.5,-63.01C92.66,-70.3 121.78,-79.87 144.84,-87.45"/>
<polygon fill="#333333" stroke="#333333" points="144.36,-89.14 149.66,-89.04 145.46,-85.81 144.36,-89.14"/>
<text text-anchor="middle" x="110" y="-83.8" font-family="Arial" font-size="9.00">to_review</text>
</g>
<!-- place_1f087a5954f6249bb7245576c304a0520d4178c5 -->
<g id="node3" class="node">
<title>place_1f087a5954f6249bb7245576c304a0520d4178c5</title>
<ellipse fill="none" stroke="#333333" cx="323" cy="-36" rx="36" ry="36"/>
<text text-anchor="middle" x="323" y="-33.8" font-family="Arial" font-size="9.00">rejected</text>
</g>
<!-- place_b56f08775db75495b47fcebe192b46a1ddbf6416&#45;&gt;place_1f087a5954f6249bb7245576c304a0520d4178c5 -->
<g id="edge3" class="edge">
<title>place_b56f08775db75495b47fcebe192b46a1ddbf6416&#45;&gt;place_1f087a5954f6249bb7245576c304a0520d4178c5</title>
<path fill="none" stroke="#333333" d="M217.12,-84.99C237.56,-75.45 264.09,-63.05 285.35,-53.12"/>
<polygon fill="#333333" stroke="#333333" points="286.29,-54.61 290.08,-50.91 284.81,-51.44 286.29,-54.61"/>
<text text-anchor="middle" x="253.5" y="-75.8" font-family="Arial" font-size="9.00">reject</text>
</g>
<!-- place_c2807535f28e44fe6c7375dcf90518115529a8fa -->
<g id="node4" class="node">
<title>place_c2807535f28e44fe6c7375dcf90518115529a8fa</title>
<ellipse fill="none" stroke="#333333" cx="323" cy="-126" rx="36" ry="36"/>
<text text-anchor="middle" x="323" y="-123.8" font-family="Arial" font-size="9.00">published</text>
</g>
<!-- place_b56f08775db75495b47fcebe192b46a1ddbf6416&#45;&gt;place_c2807535f28e44fe6c7375dcf90518115529a8fa -->
<g id="edge2" class="edge">
<title>place_b56f08775db75495b47fcebe192b46a1ddbf6416&#45;&gt;place_c2807535f28e44fe6c7375dcf90518115529a8fa</title>
<path fill="none" stroke="#333333" d="M219.57,-106.56C238.72,-110.19 262.59,-114.73 282.48,-118.5"/>
<polygon fill="#333333" stroke="#333333" points="282.2,-120.23 287.44,-119.44 282.85,-116.79 282.2,-120.23"/>
<text text-anchor="middle" x="253.5" y="-117.8" font-family="Arial" font-size="9.00">publish</text>
</g>
<!-- place_1f087a5954f6249bb7245576c304a0520d4178c5&#45;&gt;place_0e7766b460fd2a39a2fd81d4a3a636b033b52be4 -->
<g id="edge4" class="edge">
<title>place_1f087a5954f6249bb7245576c304a0520d4178c5&#45;&gt;place_0e7766b460fd2a39a2fd81d4a3a636b033b52be4</title>
<path fill="none" stroke="#333333" d="M287,-37.69C251.86,-39.42 196.17,-42.24 148,-45 124.54,-46.35 98.3,-47.99 77.23,-49.35"/>
<polygon fill="#333333" stroke="#333333" points="76.87,-47.62 71.99,-49.69 77.09,-51.12 76.87,-47.62"/>
<text text-anchor="middle" x="184" y="-47.8" font-family="Arial" font-size="9.00">to_draft</text>
</g>
</g>
</svg>
